<svg width="800" height="493" viewBox="0 0 800 493" fill="none" xmlns="http://www.w3.org/2000/svg">
<rect width="800" height="492.147" fill="#070809"/>
<path d="M312.08 252.573H310.451L315.163 239.742H316.767L321.478 252.573H319.849L316.015 241.772H315.914L312.08 252.573ZM312.682 247.561H319.248V248.94H312.682V247.561ZM324.755 246.784V252.573H323.276V242.95H324.705V244.454H324.83C325.055 243.965 325.398 243.572 325.857 243.276C326.317 242.975 326.91 242.825 327.637 242.825C328.288 242.825 328.858 242.958 329.347 243.226C329.836 243.489 330.216 243.89 330.487 244.429C330.759 244.963 330.895 245.64 330.895 246.459V252.573H329.416V246.559C329.416 245.803 329.22 245.214 328.827 244.792C328.435 244.366 327.896 244.153 327.211 244.153C326.739 244.153 326.317 244.255 325.945 244.46C325.578 244.665 325.287 244.963 325.074 245.356C324.861 245.749 324.755 246.225 324.755 246.784ZM337.23 252.774C336.429 252.774 335.721 252.571 335.107 252.166C334.493 251.757 334.012 251.181 333.666 250.437C333.319 249.689 333.146 248.806 333.146 247.787C333.146 246.776 333.319 245.899 333.666 245.155C334.012 244.412 334.495 243.838 335.113 243.432C335.731 243.027 336.445 242.825 337.256 242.825C337.882 242.825 338.377 242.929 338.74 243.138C339.108 243.343 339.388 243.577 339.58 243.84C339.776 244.099 339.929 244.312 340.037 244.479H340.163V239.742H341.641V252.573H340.213V251.095H340.037C339.929 251.27 339.774 251.492 339.574 251.759C339.373 252.022 339.087 252.258 338.715 252.467C338.344 252.672 337.849 252.774 337.23 252.774ZM337.431 251.446C338.024 251.446 338.525 251.291 338.935 250.982C339.344 250.669 339.655 250.237 339.868 249.685C340.081 249.13 340.188 248.489 340.188 247.762C340.188 247.043 340.083 246.415 339.874 245.876C339.666 245.333 339.356 244.911 338.947 244.61C338.538 244.305 338.032 244.153 337.431 244.153C336.804 244.153 336.282 244.314 335.865 244.635C335.451 244.953 335.14 245.385 334.931 245.932C334.726 246.475 334.624 247.085 334.624 247.762C334.624 248.447 334.729 249.069 334.937 249.629C335.15 250.184 335.464 250.627 335.877 250.957C336.295 251.283 336.813 251.446 337.431 251.446ZM349.517 252.573V242.95H350.945V244.454H351.07C351.271 243.94 351.595 243.541 352.042 243.257C352.489 242.969 353.025 242.825 353.652 242.825C354.287 242.825 354.815 242.969 355.237 243.257C355.663 243.541 355.995 243.94 356.233 244.454H356.333C356.58 243.957 356.949 243.562 357.442 243.27C357.935 242.973 358.526 242.825 359.215 242.825C360.076 242.825 360.78 243.094 361.327 243.633C361.874 244.168 362.147 245.001 362.147 246.133V252.573H360.669V246.133C360.669 245.423 360.475 244.915 360.086 244.61C359.698 244.305 359.24 244.153 358.714 244.153C358.037 244.153 357.513 244.358 357.142 244.767C356.77 245.172 356.584 245.686 356.584 246.308V252.573H355.08V245.982C355.08 245.435 354.903 244.995 354.548 244.66C354.193 244.322 353.735 244.153 353.176 244.153C352.791 244.153 352.432 244.255 352.098 244.46C351.768 244.665 351.501 244.949 351.296 245.312C351.096 245.671 350.995 246.087 350.995 246.559V252.573H349.517ZM368.76 252.774C367.892 252.774 367.129 252.567 366.474 252.154C365.822 251.74 365.313 251.162 364.945 250.418C364.582 249.675 364.4 248.806 364.4 247.812C364.4 246.809 364.582 245.934 364.945 245.187C365.313 244.439 365.822 243.858 366.474 243.445C367.129 243.031 367.892 242.825 368.76 242.825C369.629 242.825 370.389 243.031 371.041 243.445C371.697 243.858 372.206 244.439 372.57 245.187C372.937 245.934 373.121 246.809 373.121 247.812C373.121 248.806 372.937 249.675 372.57 250.418C372.206 251.162 371.697 251.74 371.041 252.154C370.389 252.567 369.629 252.774 368.76 252.774ZM368.76 251.446C369.42 251.446 369.963 251.277 370.389 250.938C370.816 250.6 371.131 250.155 371.336 249.604C371.54 249.052 371.643 248.455 371.643 247.812C371.643 247.169 371.54 246.569 371.336 246.014C371.131 245.458 370.816 245.009 370.389 244.667C369.963 244.324 369.42 244.153 368.76 244.153C368.101 244.153 367.558 244.324 367.132 244.667C366.705 245.009 366.39 245.458 366.185 246.014C365.981 246.569 365.878 247.169 365.878 247.812C365.878 248.455 365.981 249.052 366.185 249.604C366.39 250.155 366.705 250.6 367.132 250.938C367.558 251.277 368.101 251.446 368.76 251.446ZM375.378 252.573V242.95H376.807V244.404H376.907C377.082 243.927 377.4 243.541 377.859 243.244C378.319 242.948 378.837 242.8 379.413 242.8C379.522 242.8 379.657 242.802 379.82 242.806C379.983 242.81 380.106 242.816 380.19 242.825V244.328C380.14 244.316 380.025 244.297 379.845 244.272C379.67 244.243 379.484 244.228 379.288 244.228C378.82 244.228 378.402 244.326 378.035 244.523C377.671 244.715 377.383 244.982 377.17 245.325C376.961 245.663 376.857 246.049 376.857 246.484V252.573H375.378ZM385.685 252.774C384.757 252.774 383.957 252.569 383.285 252.16C382.617 251.746 382.101 251.17 381.737 250.431C381.378 249.687 381.199 248.823 381.199 247.837C381.199 246.851 381.378 245.982 381.737 245.231C382.101 244.475 382.606 243.886 383.254 243.464C383.905 243.038 384.665 242.825 385.534 242.825C386.035 242.825 386.53 242.908 387.019 243.075C387.508 243.242 387.953 243.514 388.354 243.89C388.755 244.262 389.074 244.754 389.312 245.368C389.55 245.982 389.669 246.738 389.669 247.636V248.263H382.251V246.985H388.166C388.166 246.442 388.057 245.957 387.84 245.531C387.627 245.105 387.322 244.769 386.925 244.523C386.532 244.276 386.069 244.153 385.534 244.153C384.945 244.153 384.436 244.299 384.005 244.592C383.579 244.88 383.252 245.256 383.022 245.719C382.792 246.183 382.677 246.68 382.677 247.21V248.062C382.677 248.789 382.803 249.405 383.053 249.911C383.308 250.412 383.661 250.794 384.112 251.057C384.563 251.316 385.087 251.446 385.685 251.446C386.073 251.446 386.424 251.391 386.737 251.283C387.055 251.17 387.328 251.003 387.558 250.782C387.788 250.556 387.965 250.276 388.09 249.942L389.519 250.343C389.369 250.828 389.116 251.254 388.761 251.621C388.406 251.985 387.967 252.269 387.445 252.473C386.923 252.674 386.336 252.774 385.685 252.774ZM396.881 252.573V242.95H398.359V252.573H396.881ZM397.632 241.346C397.344 241.346 397.096 241.248 396.887 241.052C396.682 240.855 396.58 240.619 396.58 240.344C396.58 240.068 396.682 239.832 396.887 239.636C397.096 239.439 397.344 239.341 397.632 239.341C397.921 239.341 398.167 239.439 398.372 239.636C398.581 239.832 398.685 240.068 398.685 240.344C398.685 240.619 398.581 240.855 398.372 241.052C398.167 241.248 397.921 241.346 397.632 241.346ZM407.884 245.105L406.556 245.481C406.472 245.26 406.349 245.045 406.186 244.836C406.027 244.623 405.81 244.447 405.535 244.31C405.259 244.172 404.906 244.103 404.476 244.103C403.887 244.103 403.396 244.239 403.003 244.51C402.615 244.777 402.421 245.118 402.421 245.531C402.421 245.899 402.554 246.189 402.822 246.402C403.089 246.615 403.507 246.793 404.075 246.935L405.503 247.286C406.364 247.494 407.005 247.814 407.427 248.244C407.849 248.67 408.059 249.219 408.059 249.892C408.059 250.443 407.901 250.936 407.583 251.371C407.27 251.805 406.831 252.147 406.268 252.398C405.704 252.649 405.048 252.774 404.3 252.774C403.319 252.774 402.506 252.561 401.863 252.135C401.22 251.709 400.813 251.087 400.641 250.268L402.045 249.917C402.178 250.435 402.431 250.823 402.803 251.082C403.179 251.341 403.67 251.471 404.275 251.471C404.964 251.471 405.512 251.325 405.917 251.032C406.326 250.736 406.531 250.381 406.531 249.967C406.531 249.633 406.414 249.353 406.18 249.128C405.946 248.898 405.587 248.727 405.102 248.614L403.498 248.238C402.617 248.029 401.97 247.705 401.556 247.267C401.147 246.824 400.942 246.271 400.942 245.606C400.942 245.064 401.095 244.583 401.399 244.165C401.709 243.748 402.128 243.42 402.659 243.182C403.193 242.944 403.799 242.825 404.476 242.825C405.428 242.825 406.176 243.034 406.719 243.451C407.266 243.869 407.654 244.42 407.884 245.105ZM419.157 252.774C418.255 252.774 417.478 252.561 416.826 252.135C416.175 251.709 415.673 251.122 415.322 250.374C414.972 249.627 414.796 248.773 414.796 247.812C414.796 246.834 414.976 245.972 415.335 245.224C415.698 244.472 416.204 243.886 416.851 243.464C417.503 243.038 418.263 242.825 419.132 242.825C419.808 242.825 420.418 242.95 420.961 243.201C421.504 243.451 421.949 243.802 422.296 244.253C422.642 244.704 422.858 245.231 422.941 245.832H421.462C421.35 245.393 421.099 245.005 420.711 244.667C420.326 244.324 419.808 244.153 419.157 244.153C418.58 244.153 418.075 244.303 417.641 244.604C417.21 244.901 416.874 245.32 416.632 245.863C416.394 246.402 416.275 247.035 416.275 247.762C416.275 248.505 416.392 249.153 416.626 249.704C416.864 250.255 417.198 250.683 417.628 250.988C418.063 251.293 418.572 251.446 419.157 251.446C419.541 251.446 419.89 251.379 420.203 251.245C420.516 251.112 420.782 250.919 420.999 250.669C421.216 250.418 421.371 250.117 421.462 249.767H422.941C422.858 250.335 422.651 250.846 422.321 251.302C421.995 251.753 421.563 252.112 421.024 252.379C420.489 252.642 419.867 252.774 419.157 252.774ZM429.012 252.774C428.143 252.774 427.381 252.567 426.725 252.154C426.074 251.74 425.564 251.162 425.197 250.418C424.833 249.675 424.651 248.806 424.651 247.812C424.651 246.809 424.833 245.934 425.197 245.187C425.564 244.439 426.074 243.858 426.725 243.445C427.381 243.031 428.143 242.825 429.012 242.825C429.881 242.825 430.641 243.031 431.293 243.445C431.948 243.858 432.458 244.439 432.821 245.187C433.189 245.934 433.373 246.809 433.373 247.812C433.373 248.806 433.189 249.675 432.821 250.418C432.458 251.162 431.948 251.74 431.293 252.154C430.641 252.567 429.881 252.774 429.012 252.774ZM429.012 251.446C429.672 251.446 430.215 251.277 430.641 250.938C431.067 250.6 431.382 250.155 431.587 249.604C431.792 249.052 431.894 248.455 431.894 247.812C431.894 247.169 431.792 246.569 431.587 246.014C431.382 245.458 431.067 245.009 430.641 244.667C430.215 244.324 429.672 244.153 429.012 244.153C428.352 244.153 427.809 244.324 427.383 244.667C426.957 245.009 426.642 245.458 426.437 246.014C426.232 246.569 426.13 247.169 426.13 247.812C426.13 248.455 426.232 249.052 426.437 249.604C426.642 250.155 426.957 250.6 427.383 250.938C427.809 251.277 428.352 251.446 429.012 251.446ZM435.63 252.573V242.95H437.058V244.454H437.184C437.384 243.94 437.708 243.541 438.155 243.257C438.602 242.969 439.138 242.825 439.765 242.825C440.4 242.825 440.928 242.969 441.35 243.257C441.776 243.541 442.108 243.94 442.346 244.454H442.446C442.693 243.957 443.063 243.562 443.555 243.27C444.048 242.973 444.639 242.825 445.328 242.825C446.189 242.825 446.893 243.094 447.44 243.633C447.987 244.168 448.261 245.001 448.261 246.133V252.573H446.782V246.133C446.782 245.423 446.588 244.915 446.199 244.61C445.811 244.305 445.354 244.153 444.827 244.153C444.151 244.153 443.626 244.358 443.255 244.767C442.883 245.172 442.697 245.686 442.697 246.308V252.573H441.193V245.982C441.193 245.435 441.016 244.995 440.661 244.66C440.306 244.322 439.848 244.153 439.289 244.153C438.904 244.153 438.545 244.255 438.211 244.46C437.881 244.665 437.614 244.949 437.409 245.312C437.209 245.671 437.108 246.087 437.108 246.559V252.573H435.63ZM450.964 252.573V242.95H452.443V252.573H450.964ZM451.716 241.346C451.428 241.346 451.179 241.248 450.97 241.052C450.766 240.855 450.663 240.619 450.663 240.344C450.663 240.068 450.766 239.832 450.97 239.636C451.179 239.439 451.428 239.341 451.716 239.341C452.004 239.341 452.251 239.439 452.455 239.636C452.664 239.832 452.768 240.068 452.768 240.344C452.768 240.619 452.664 240.855 452.455 241.052C452.251 241.248 452.004 241.346 451.716 241.346ZM456.629 246.784V252.573H455.151V242.95H456.579V244.454H456.705C456.93 243.965 457.273 243.572 457.732 243.276C458.192 242.975 458.785 242.825 459.512 242.825C460.163 242.825 460.733 242.958 461.222 243.226C461.711 243.489 462.091 243.89 462.362 244.429C462.634 244.963 462.769 245.64 462.769 246.459V252.573H461.291V246.559C461.291 245.803 461.095 245.214 460.702 244.792C460.309 244.366 459.77 244.153 459.085 244.153C458.613 244.153 458.192 244.255 457.82 244.46C457.452 244.665 457.162 244.963 456.949 245.356C456.736 245.749 456.629 246.225 456.629 246.784ZM469.356 256.383C468.642 256.383 468.028 256.291 467.514 256.107C467 255.927 466.572 255.689 466.229 255.393C465.891 255.1 465.622 254.787 465.421 254.453L466.599 253.626C466.733 253.801 466.902 254.002 467.107 254.228C467.311 254.457 467.591 254.656 467.946 254.823C468.305 254.994 468.775 255.08 469.356 255.08C470.133 255.08 470.774 254.892 471.279 254.516C471.785 254.14 472.037 253.551 472.037 252.749V250.794H471.912C471.803 250.97 471.649 251.187 471.448 251.446C471.252 251.701 470.968 251.928 470.596 252.129C470.229 252.325 469.732 252.423 469.105 252.423C468.328 252.423 467.631 252.239 467.013 251.872C466.399 251.504 465.912 250.97 465.553 250.268C465.198 249.566 465.02 248.714 465.02 247.712C465.02 246.726 465.194 245.868 465.54 245.137C465.887 244.401 466.369 243.833 466.988 243.432C467.606 243.027 468.32 242.825 469.13 242.825C469.757 242.825 470.254 242.929 470.621 243.138C470.993 243.343 471.277 243.577 471.473 243.84C471.674 244.099 471.829 244.312 471.937 244.479H472.087V242.95H473.516V252.849C473.516 253.676 473.328 254.349 472.952 254.867C472.58 255.389 472.079 255.771 471.448 256.013C470.822 256.26 470.124 256.383 469.356 256.383ZM469.306 251.095C469.899 251.095 470.4 250.959 470.809 250.688C471.219 250.416 471.53 250.026 471.743 249.516C471.956 249.006 472.062 248.397 472.062 247.687C472.062 246.993 471.958 246.381 471.749 245.851C471.54 245.32 471.231 244.905 470.822 244.604C470.413 244.303 469.907 244.153 469.306 244.153C468.679 244.153 468.157 244.312 467.739 244.629C467.326 244.947 467.015 245.373 466.806 245.907C466.601 246.442 466.499 247.035 466.499 247.687C466.499 248.355 466.603 248.946 466.812 249.46C467.025 249.969 467.338 250.37 467.752 250.663C468.17 250.951 468.688 251.095 469.306 251.095ZM477.3 252.674C476.991 252.674 476.726 252.563 476.505 252.342C476.283 252.12 476.172 251.855 476.172 251.546C476.172 251.237 476.283 250.972 476.505 250.75C476.726 250.529 476.991 250.418 477.3 250.418C477.609 250.418 477.875 250.529 478.096 250.75C478.317 250.972 478.428 251.237 478.428 251.546C478.428 251.751 478.376 251.939 478.271 252.11C478.171 252.281 478.035 252.419 477.864 252.523C477.697 252.624 477.509 252.674 477.3 252.674ZM482.159 252.674C481.85 252.674 481.585 252.563 481.363 252.342C481.142 252.12 481.031 251.855 481.031 251.546C481.031 251.237 481.142 250.972 481.363 250.75C481.585 250.529 481.85 250.418 482.159 250.418C482.468 250.418 482.733 250.529 482.955 250.75C483.176 250.972 483.287 251.237 483.287 251.546C483.287 251.751 483.234 251.939 483.13 252.11C483.03 252.281 482.894 252.419 482.723 252.523C482.556 252.624 482.368 252.674 482.159 252.674ZM487.018 252.674C486.709 252.674 486.443 252.563 486.222 252.342C486.001 252.12 485.89 251.855 485.89 251.546C485.89 251.237 486.001 250.972 486.222 250.75C486.443 250.529 486.709 250.418 487.018 250.418C487.327 250.418 487.592 250.529 487.813 250.75C488.035 250.972 488.145 251.237 488.145 251.546C488.145 251.751 488.093 251.939 487.989 252.11C487.889 252.281 487.753 252.419 487.582 252.523C487.414 252.624 487.227 252.674 487.018 252.674Z" fill="#9D9D9D"/>
</svg>
